<svg xmlns="http://www.w3.org/2000/svg" viewBox="0 0 1200 700" width="1200" height="700">
  <defs>
    <linearGradient id="bg" x1="0" y1="0" x2="0" y2="1">
      <stop offset="0%" stop-color="#050506"/>
      <stop offset="100%" stop-color="#020203"/>
    </linearGradient>
    <linearGradient id="glow" x1="0" y1="0" x2="0" y2="1">
      <stop offset="0%" stop-color="#3b82f6" stop-opacity="0.15"/>
      <stop offset="100%" stop-color="#3b82f6" stop-opacity="0"/>
    </linearGradient>
  </defs>

  <!-- Background -->
  <rect width="1200" height="700" fill="url(#bg)"/>

  <!-- Blue ambient glow centre -->
  <ellipse cx="600" cy="350" rx="280" ry="200" fill="#3b82f6" fill-opacity="0.06"/>

  <!-- TOP HEADER -->
  <rect width="1200" height="56" fill="#050506" fill-opacity="0.9"/>
  <rect width="1200" height="1" y="56" fill="#ffffff" fill-opacity="0.05"/>
  <!-- Pulse dot -->
  <circle cx="24" cy="28" r="5" fill="#3b82f6">
    <animate attributeName="r" values="4;6;4" dur="2s" repeatCount="indefinite"/>
    <animate attributeName="fill-opacity" values="1;0.5;1" dur="2s" repeatCount="indefinite"/>
  </circle>
  <text x="36" y="33" font-family="monospace" font-size="12" font-weight="600" fill="#ffffff" letter-spacing="2">AEGIS OBSERVABILITY CONSOLE</text>
  <text x="230" y="33" font-family="monospace" font-size="11" fill="#3b82f6" fill-opacity="0.8">v2.4.0</text>
  <text x="900" y="33" font-family="monospace" font-size="10" fill="#3b82f6" letter-spacing="2">SYSTEM: HEALTHY</text>
  <text x="1040" y="33" font-family="monospace" font-size="10" fill="#64748b" letter-spacing="2">CLUSTER: US-EAST-1</text>

  <!-- LEFT SIDEBAR (w=256) -->
  <rect x="0" y="57" width="256" height="595" fill="#050506" fill-opacity="0.8"/>
  <rect x="255" y="57" width="1" height="595" fill="#ffffff" fill-opacity="0.05"/>

  <!-- Model Metadata label -->
  <circle cx="20" cy="84" r="4" fill="#3b82f6"/>
  <text x="32" y="89" font-family="monospace" font-size="9" fill="#64748b" letter-spacing="3">MODEL METADATA</text>

  <!-- Active model card -->
  <rect x="12" y="100" width="232" height="48" rx="6" fill="#ffffff" fill-opacity="0.05" stroke="#ffffff" stroke-opacity="0.05" stroke-width="1"/>
  <text x="20" y="116" font-family="monospace" font-size="9" fill="#64748b">ACTIVE MODEL</text>
  <text x="20" y="136" font-family="monospace" font-size="12" fill="#ffffff" font-weight="600" letter-spacing="1">GPT-NEOX-7B</text>

  <!-- Meta items -->
  <g font-family="monospace" font-size="10" fill="#94a3b8">
    <text x="20" y="170">Architecture</text><text x="180" y="170" fill="#ffffff">Decoder-only</text>
    <line x1="12" y1="178" x2="244" y2="178" stroke="#ffffff" stroke-opacity="0.05"/>
    <text x="20" y="196">Parameters</text><text x="180" y="196" fill="#ffffff">7.4B</text>
    <line x1="12" y1="204" x2="244" y2="204" stroke="#ffffff" stroke-opacity="0.05"/>
    <text x="20" y="222">Device</text><text x="180" y="222" fill="#3b82f6" font-family="monospace">H100 80GB</text>
    <line x1="12" y1="230" x2="244" y2="230" stroke="#ffffff" stroke-opacity="0.05"/>
    <text x="20" y="248">Precision</text><text x="180" y="248" fill="#ffffff">BFloat16</text>
    <line x1="12" y1="256" x2="244" y2="256" stroke="#ffffff" stroke-opacity="0.05"/>
    <text x="20" y="274">Context</text><text x="180" y="274" fill="#ffffff">2048 tokens</text>
    <line x1="12" y1="282" x2="244" y2="282" stroke="#ffffff" stroke-opacity="0.05"/>
    <text x="20" y="300">Batch Size</text><text x="180" y="300" fill="#ffffff">128</text>
    <line x1="12" y1="308" x2="244" y2="308" stroke="#ffffff" stroke-opacity="0.05"/>
    <text x="20" y="326">Memory</text><text x="180" y="326" fill="#ffffff">14.8 GB</text>
    <line x1="12" y1="334" x2="244" y2="334" stroke="#ffffff" stroke-opacity="0.05"/>
    <text x="20" y="352">Status</text>
    <rect x="176" y="340" width="68" height="18" rx="4" fill="#10b981" fill-opacity="0.15"/>
    <text x="210" y="353" text-anchor="middle" fill="#10b981" font-size="9" letter-spacing="1">INFERENCE</text>
  </g>

  <!-- Throughput card -->
  <rect x="12" y="580" width="232" height="60" rx="6" fill="#3b82f6" fill-opacity="0.05" stroke="#3b82f6" stroke-opacity="0.2" stroke-width="1"/>
  <text x="20" y="598" font-family="monospace" font-size="9" fill="#3b82f6" letter-spacing="3">THROUGHPUT</text>
  <text x="20" y="626" font-family="monospace" font-size="26" fill="#ffffff" font-weight="300">14,200</text>
  <text x="148" y="626" font-family="monospace" font-size="10" fill="#3b82f6" fill-opacity="0.6">TPS</text>

  <!-- MAIN AREA -->
  <!-- Workspace title -->
  <text x="276" y="86" font-family="monospace" font-size="12" fill="#ffffff" font-weight="500">Multi-Head Attention Map</text>
  <text x="276" y="86" font-family="monospace" font-size="12" fill="#64748b" dx="200">— Layer 24</text>
  <text x="276" y="102" font-family="monospace" font-size="10" fill="#475569">Real-time weight activation across query-key subspaces.</text>

  <!-- Workspace card -->
  <rect x="276" y="114" width="644" height="430" rx="16" fill="#000000" fill-opacity="0.4" stroke="#ffffff" stroke-opacity="0.05" stroke-width="1"/>

  <!-- Neural computation label -->
  <text x="296" y="145" font-family="monospace" font-size="10" fill="#3b82f6" fill-opacity="0.6">✦ NEURAL COMPUTATION ENGINE</text>

  <!-- Transformer stage 3: Attention stack visualization -->
  <!-- Token labels at bottom -->
  <g font-family="monospace" font-size="11" text-anchor="middle">
    <rect x="310" y="480" width="52" height="28" rx="4" fill="#ffffff" fill-opacity="0.05" stroke="#ffffff" stroke-opacity="0.1"/>
    <text x="336" y="499" fill="#3b82f6">[The]</text>
    <rect x="376" y="480" width="52" height="28" rx="4" fill="#ffffff" fill-opacity="0.05" stroke="#ffffff" stroke-opacity="0.1"/>
    <text x="402" y="499" fill="#3b82f6">[cat]</text>
    <rect x="442" y="480" width="44" height="28" rx="4" fill="#ffffff" fill-opacity="0.05" stroke="#ffffff" stroke-opacity="0.1"/>
    <text x="464" y="499" fill="#3b82f6">[is]</text>
    <rect x="500" y="480" width="68" height="28" rx="4" fill="#ffffff" fill-opacity="0.05" stroke="#ffffff" stroke-opacity="0.1"/>
    <text x="534" y="499" fill="#3b82f6">[sitting]</text>
    <rect x="582" y="480" width="44" height="28" rx="4" fill="#ffffff" fill-opacity="0.05" stroke="#ffffff" stroke-opacity="0.1"/>
    <text x="604" y="499" fill="#3b82f6">[on]</text>
    <rect x="640" y="480" width="52" height="28" rx="4" fill="#ffffff" fill-opacity="0.05" stroke="#ffffff" stroke-opacity="0.1"/>
    <text x="666" y="499" fill="#3b82f6">[the]</text>
    <rect x="706" y="480" width="60" height="28" rx="4" fill="#ffffff" fill-opacity="0.05" stroke="#ffffff" stroke-opacity="0.1"/>
    <text x="736" y="499" fill="#3b82f6">[mat.]</text>
  </g>

  <!-- Attention weight lines from "sitting" (center) -->
  <g stroke-linecap="round" fill="none">
    <line x1="534" y1="480" x2="336" y2="320" stroke="#3b82f6" stroke-width="0.8" stroke-opacity="0.25"/>
    <line x1="534" y1="480" x2="402" y2="320" stroke="#3b82f6" stroke-width="1.5" stroke-opacity="0.4"/>
    <line x1="534" y1="480" x2="464" y2="320" stroke="#3b82f6" stroke-width="2.5" stroke-opacity="0.6"/>
    <line x1="534" y1="480" x2="534" y2="320" stroke="#f59e0b" stroke-width="5" stroke-opacity="0.9"/>
    <line x1="534" y1="480" x2="604" y2="320" stroke="#3b82f6" stroke-width="3" stroke-opacity="0.7"/>
    <line x1="534" y1="480" x2="666" y2="320" stroke="#3b82f6" stroke-width="1.8" stroke-opacity="0.45"/>
    <line x1="534" y1="480" x2="736" y2="320" stroke="#3b82f6" stroke-width="0.8" stroke-opacity="0.2"/>
  </g>

  <!-- Attention heads grid -->
  <text x="296" y="310" font-family="monospace" font-size="9" fill="#64748b" letter-spacing="2">ATTENTION HEADS — 32 TOTAL</text>
  <g>
    <!-- Row of attention head cells with varying intensity -->
    <rect x="296" y="220" width="28" height="28" rx="3" fill="#1e40af" fill-opacity="0.3"/>
    <rect x="330" y="220" width="28" height="28" rx="3" fill="#1d4ed8" fill-opacity="0.5"/>
    <rect x="364" y="220" width="28" height="28" rx="3" fill="#2563eb" fill-opacity="0.7"/>
    <rect x="398" y="220" width="28" height="28" rx="3" fill="#3b82f6" fill-opacity="0.9"/>
    <rect x="432" y="220" width="28" height="28" rx="3" fill="#f59e0b" fill-opacity="0.95"/>
    <rect x="466" y="220" width="28" height="28" rx="3" fill="#3b82f6" fill-opacity="0.85"/>
    <rect x="500" y="220" width="28" height="28" rx="3" fill="#2563eb" fill-opacity="0.6"/>
    <rect x="534" y="220" width="28" height="28" rx="3" fill="#1d4ed8" fill-opacity="0.4"/>
    <rect x="568" y="220" width="28" height="28" rx="3" fill="#1e40af" fill-opacity="0.25"/>
    <rect x="602" y="220" width="28" height="28" rx="3" fill="#1e40af" fill-opacity="0.35"/>
    <rect x="636" y="220" width="28" height="28" rx="3" fill="#2563eb" fill-opacity="0.55"/>
    <rect x="670" y="220" width="28" height="28" rx="3" fill="#3b82f6" fill-opacity="0.75"/>
    <rect x="704" y="220" width="28" height="28" rx="3" fill="#f59e0b" fill-opacity="0.8"/>
    <rect x="738" y="220" width="28" height="28" rx="3" fill="#3b82f6" fill-opacity="0.65"/>
    <rect x="772" y="220" width="28" height="28" rx="3" fill="#2563eb" fill-opacity="0.45"/>
    <rect x="806" y="220" width="28" height="28" rx="3" fill="#1d4ed8" fill-opacity="0.3"/>

    <rect x="296" y="256" width="28" height="28" rx="3" fill="#1e40af" fill-opacity="0.4"/>
    <rect x="330" y="256" width="28" height="28" rx="3" fill="#3b82f6" fill-opacity="0.7"/>
    <rect x="364" y="256" width="28" height="28" rx="3" fill="#f59e0b" fill-opacity="0.85"/>
    <rect x="398" y="256" width="28" height="28" rx="3" fill="#3b82f6" fill-opacity="0.75"/>
    <rect x="432" y="256" width="28" height="28" rx="3" fill="#2563eb" fill-opacity="0.55"/>
    <rect x="466" y="256" width="28" height="28" rx="3" fill="#1e40af" fill-opacity="0.35"/>
    <rect x="500" y="256" width="28" height="28" rx="3" fill="#1d4ed8" fill-opacity="0.5"/>
    <rect x="534" y="256" width="28" height="28" rx="3" fill="#3b82f6" fill-opacity="0.8"/>
    <rect x="568" y="256" width="28" height="28" rx="3" fill="#f59e0b" fill-opacity="0.9"/>
    <rect x="602" y="256" width="28" height="28" rx="3" fill="#3b82f6" fill-opacity="0.7"/>
    <rect x="636" y="256" width="28" height="28" rx="3" fill="#2563eb" fill-opacity="0.5"/>
    <rect x="670" y="256" width="28" height="28" rx="3" fill="#1e40af" fill-opacity="0.3"/>
    <rect x="704" y="256" width="28" height="28" rx="3" fill="#1d4ed8" fill-opacity="0.45"/>
    <rect x="738" y="256" width="28" height="28" rx="3" fill="#3b82f6" fill-opacity="0.65"/>
    <rect x="772" y="256" width="28" height="28" rx="3" fill="#f59e0b" fill-opacity="0.75"/>
    <rect x="806" y="256" width="28" height="28" rx="3" fill="#3b82f6" fill-opacity="0.55"/>
  </g>

  <!-- Layer labels -->
  <text x="296" y="215" font-family="monospace" font-size="9" fill="#475569">LAYER 23</text>
  <text x="296" y="252" font-family="monospace" font-size="9" fill="#3b82f6">LAYER 24 — ACTIVE</text>

  <!-- BOTTOM CONTROLS -->
  <rect x="276" y="552" width="644" height="96" fill="#050506" fill-opacity="0.4" stroke="#ffffff" stroke-opacity="0.05" stroke-width="0" rx="0"/>
  <rect x="276" y="552" width="644" height="1" fill="#ffffff" fill-opacity="0.05"/>

  <!-- Mode buttons -->
  <rect x="288" y="566" width="220" height="44" rx="10" fill="#3b82f6" fill-opacity="0.2" stroke="#3b82f6" stroke-opacity="0.5" stroke-width="1"/>
  <text x="398" y="593" font-family="monospace" font-size="10" fill="#ffffff" text-anchor="middle" letter-spacing="2">TRANSFORMER ATTENTION</text>

  <rect x="520" y="566" width="200" height="44" rx="10" fill="#ffffff" fill-opacity="0.05" stroke="#ffffff" stroke-opacity="0.1" stroke-width="1"/>
  <text x="620" y="593" font-family="monospace" font-size="10" fill="#64748b" text-anchor="middle" letter-spacing="2">YOLO INFERENCE</text>

  <!-- Run button -->
  <rect x="806" y="566" width="100" height="44" rx="10" fill="#2563eb" stroke="none"/>
  <text x="856" y="593" font-family="monospace" font-size="10" fill="#ffffff" text-anchor="middle" font-weight="600" letter-spacing="2">▶ RUN</text>

  <!-- RIGHT SIDEBAR -->
  <rect x="924" y="57" width="276" height="595" fill="#050506" fill-opacity="0.8"/>
  <rect x="924" y="57" width="1" height="595" fill="#ffffff" fill-opacity="0.05"/>

  <!-- Live Telemetry label -->
  <circle cx="940" cy="84" r="4" fill="#3b82f6"/>
  <text x="952" y="89" font-family="monospace" font-size="9" fill="#64748b" letter-spacing="3">LIVE TELEMETRY</text>

  <!-- GPU Util bar -->
  <text x="936" y="116" font-family="monospace" font-size="9" fill="#94a3b8" letter-spacing="1">GPU UTILIZATION</text>
  <text x="1176" y="116" font-family="monospace" font-size="9" fill="#3b82f6" text-anchor="end">72%</text>
  <rect x="936" y="122" width="240" height="4" rx="2" fill="#ffffff" fill-opacity="0.05"/>
  <rect x="936" y="122" width="173" height="4" rx="2" fill="#3b82f6"/>

  <!-- VRAM bar -->
  <text x="936" y="148" font-family="monospace" font-size="9" fill="#94a3b8" letter-spacing="1">VRAM USAGE</text>
  <text x="1176" y="148" font-family="monospace" font-size="9" fill="#8b5cf6" text-anchor="end">35 / 80 GB</text>
  <rect x="936" y="154" width="240" height="4" rx="2" fill="#ffffff" fill-opacity="0.05"/>
  <rect x="936" y="154" width="105" height="4" rx="2" fill="#8b5cf6"/>

  <!-- Metric cards 2x2 -->
  <rect x="936" y="172" width="112" height="56" rx="6" fill="#ffffff" fill-opacity="0.05" stroke="#ffffff" stroke-opacity="0.05"/>
  <text x="944" y="188" font-family="monospace" font-size="8" fill="#64748b" letter-spacing="1">LATENCY</text>
  <text x="944" y="214" font-family="monospace" font-size="18" fill="#ffffff">12.4ms</text>

  <rect x="1056" y="172" width="112" height="56" rx="6" fill="#ffffff" fill-opacity="0.05" stroke="#ffffff" stroke-opacity="0.05"/>
  <text x="1064" y="188" font-family="monospace" font-size="8" fill="#64748b" letter-spacing="1">FPS</text>
  <text x="1064" y="214" font-family="monospace" font-size="18" fill="#ffffff">144</text>

  <rect x="936" y="236" width="112" height="56" rx="6" fill="#ffffff" fill-opacity="0.05" stroke="#ffffff" stroke-opacity="0.05"/>
  <text x="944" y="252" font-family="monospace" font-size="8" fill="#64748b" letter-spacing="1">ENTROPY</text>
  <text x="944" y="278" font-family="monospace" font-size="18" fill="#ffffff">1.24</text>

  <rect x="1056" y="236" width="112" height="56" rx="6" fill="#ffffff" fill-opacity="0.05" stroke="#ffffff" stroke-opacity="0.05"/>
  <text x="1064" y="252" font-family="monospace" font-size="8" fill="#64748b" letter-spacing="1">Q-DEPTH</text>
  <text x="1064" y="278" font-family="monospace" font-size="18" fill="#ffffff">04</text>

  <!-- Inference activity bars -->
  <text x="936" y="316" font-family="monospace" font-size="9" fill="#64748b" letter-spacing="3">INFERENCE ACTIVITY</text>
  <g fill="#3b82f6" fill-opacity="0.2">
    <rect x="936" y="358" width="12" height="32" rx="2"/>
    <rect x="952" y="342" width="12" height="48" rx="2"/>
    <rect x="968" y="350" width="12" height="40" rx="2"/>
    <rect x="984" y="330" width="12" height="60" rx="2"/>
    <rect x="1000" y="345" width="12" height="45" rx="2" fill="#3b82f6" fill-opacity="0.8"/>
    <rect x="1016" y="336" width="12" height="54" rx="2"/>
    <rect x="1032" y="355" width="12" height="35" rx="2"/>
    <rect x="1048" y="340" width="12" height="50" rx="2"/>
    <rect x="1064" y="348" width="12" height="42" rx="2"/>
    <rect x="1080" y="328" width="12" height="62" rx="2"/>
    <rect x="1096" y="352" width="12" height="38" rx="2"/>
    <rect x="1112" y="338" width="12" height="52" rx="2"/>
    <rect x="1128" y="346" width="12" height="44" rx="2"/>
    <rect x="1144" y="360" width="12" height="30" rx="2"/>
    <rect x="1160" y="344" width="12" height="46" rx="2"/>
  </g>

  <!-- Event log -->
  <text x="936" y="410" font-family="monospace" font-size="9" fill="#64748b" letter-spacing="3">EVENT LOG</text>
  <text x="936" y="432" font-family="monospace" font-size="10" fill="#10b981" fill-opacity="0.8">[04:21:02] LAYER_24_COMMIT_SUCCESS</text>
  <text x="936" y="452" font-family="monospace" font-size="10" fill="#475569">[04:21:03] CACHE_KV_REALLOCATE</text>
  <text x="936" y="472" font-family="monospace" font-size="10" fill="#475569">[04:21:03] ATTN_HEAD_32_FLUSH</text>
  <text x="936" y="492" font-family="monospace" font-size="10" fill="#3b82f6">[04:21:04] TOKEN_GEN_ID_8829</text>

  <!-- FOOTER -->
  <rect x="0" y="652" width="1200" height="48" fill="#070709"/>
  <rect x="0" y="652" width="1200" height="1" fill="#ffffff" fill-opacity="0.05"/>
  <text x="16" y="681" font-family="monospace" font-size="10" fill="#64748b">GPU_TEMP: <tspan fill="#10b981">42.4°C</tspan></text>
  <text x="180" y="681" font-family="monospace" font-size="10" fill="#64748b">UPTIME: <tspan fill="#94a3b8">112:14:02:18</tspan></text>
  <circle cx="900" cy="676" r="3" fill="#3b82f6"/>
  <text x="910" y="681" font-family="monospace" font-size="10" fill="#475569">Streaming Telemetry: TLS 1.3 Encryption Active</text>
</svg>
